<?xml version="1.0" standalone="no"?>
<svg xmlns="http://www.w3.org/2000/svg" viewBox="0 0 190.91 190.91"><circle cx="95.45" cy="95.45" r="95.45" fill="#cb6828"/><polygon points="175.25 95.45 105.3 55.06 105.3 89.76 45.2 55.06 45.2 135.84 105.3 101.15 105.3 135.84 175.25 95.45" fill="#fff"/><path d="M109.84,149.61a5,5,0,0,1-5-5v-26L52.25,148.94a5,5,0,0,1-7.5-4.33V63.83a5,5,0,0,1,7.5-4.33l52.59,30.37v-26a5,5,0,0,1,7.5-4.33l70,40.39a5,5,0,0,1,0,8.66l-70,40.39A4.93,4.93,0,0,1,109.84,149.61Zm0-44.7a5,5,0,0,1,5,5v26l55-31.73-55-31.73v26a5,5,0,0,1-7.5,4.33L54.75,72.49V136l52.59-30.37A5.09,5.09,0,0,1,109.84,104.91Z" transform="translate(-4.55 -8.77)" fill="#fff"/></svg>