<?xml version="1.0" standalone="no"?>
<svg xmlns="http://www.w3.org/2000/svg" viewBox="0 0 134.258 36" width="134.258" height="36"><g fill="#a16aff" color="#a16aff" transform="translate(0 6) scale(0.4705883)"><svg width="44.0" height="51.0" x="0.0" y="0.0" viewBox="0 0 44 51"><path fill="currentColor" fill-rule="evenodd" d="M22 0L0 12.571v25.143l22 12.572 21.994-12.568.006-.01V12.571L22 0zM6.354 13.778L22 4.84l15.645 8.938-4.231 2.419L22 9.678l-11.411 6.52-4.235-2.42zm17.764 10.158v-8.21L31.3 19.83v8.208l-7.182-4.101zm-11.416-4.107l7.18-4.102v8.207l-7.18 4.103v-8.208zm11.416 19.57l11.415-6.522V19.826l4.233-2.42v17.89l-15.648 8.941v-4.838zM4.233 35.296v-17.89l4.233 2.42v13.049l11.416 6.524v4.838l-15.649-8.94zm10.583-3.63l7.182-4.104 7.183 4.104L22 35.768l-7.184-4.102z"></path></svg></g><path fill="#5e00ff" fill-rule="nonzero" d="M15.67 5.95Q15.67 7.46 14.86 8.69Q14.04 9.91 12.48 10.49L12.48 10.49L16.15 17.40L10.20 17.40L7.27 11.38L5.30 11.38L5.30 17.40L0 17.40L0 0.89L10.10 0.89Q11.88 0.89 13.14 1.57Q14.40 2.26 15.04 3.42Q15.67 4.58 15.67 5.95L15.67 5.95ZM10.27 6.17Q10.27 5.52 9.84 5.09Q9.41 4.66 8.78 4.66L8.78 4.66L5.30 4.66L5.30 7.70L8.78 7.70Q9.41 7.70 9.84 7.26Q10.27 6.82 10.27 6.17L10.27 6.17ZM24.29 4.44Q27.77 4.44 29.60 6.07Q31.44 7.70 31.44 11.06L31.44 11.06L31.44 11.88L21.94 11.88Q21.94 13.25 22.55 13.94Q23.16 14.64 24.48 14.64L24.48 14.64Q25.68 14.64 26.24 14.14Q26.81 13.63 26.81 12.79L26.81 12.79L31.44 12.79Q31.44 15.10 29.69 16.39Q27.94 17.69 24.58 17.69L24.58 17.69Q21.05 17.69 19.10 16.04Q17.16 14.40 17.16 11.06L17.16 11.06Q17.16 7.80 19.06 6.12Q20.95 4.44 24.29 4.44L24.29 4.44ZM24.48 7.49Q22.22 7.49 21.96 9.62L21.96 9.62L26.62 9.62Q26.62 8.64 26.05 8.06Q25.49 7.49 24.48 7.49L24.48 7.49ZM41.50 17.40L36.48 17.40L31.68 4.73L36.82 4.73L39.14 12.62L39.31 12.62L41.64 4.73L46.34 4.73L41.50 17.40ZM57.38 0.89Q58.92 0.89 60.12 1.60Q61.32 2.30 61.99 3.54Q62.66 4.78 62.66 6.31L62.66 6.31L62.66 6.62Q62.66 8.16 61.99 9.41Q61.32 10.66 60.12 11.36Q58.92 12.07 57.38 12.07L57.38 12.07L53.42 12.07L53.42 17.40L48.12 17.40L48.12 0.89L57.38 0.89ZM53.42 4.80L53.42 8.21L55.61 8.21Q56.45 8.21 56.87 7.78Q57.29 7.34 57.29 6.60L57.29 6.60L57.29 6.41Q57.29 5.64 56.87 5.22Q56.45 4.80 55.61 4.80L55.61 4.80L53.42 4.80ZM70.06 3.24L65.28 3.24L65.28 0L70.06 0L70.06 3.24ZM70.06 17.40L65.28 17.40L65.28 4.73L70.06 4.73L70.06 17.40ZM78.05 17.40L73.27 17.40L73.27 0L78.05 0L78.05 17.40ZM87.65 4.44Q90.98 4.44 92.89 6.13Q94.80 7.82 94.80 11.06L94.80 11.06Q94.80 14.30 92.89 16.00Q90.98 17.69 87.65 17.69L87.65 17.69Q84.31 17.69 82.42 16.01Q80.52 14.33 80.52 11.06L80.52 11.06Q80.52 7.80 82.42 6.12Q84.31 4.44 87.65 4.44L87.65 4.44ZM87.65 7.68Q85.30 7.68 85.30 10.39L85.30 10.39L85.30 11.76Q85.30 14.45 87.65 14.45L87.65 14.45Q90.02 14.45 90.02 11.76L90.02 11.76L90.02 10.39Q90.02 7.68 87.65 7.68L87.65 7.68ZM102.86 4.73L105.55 4.73L105.55 7.97L102.86 7.97L102.86 12.79Q102.86 13.66 103.15 14.05Q103.44 14.45 104.21 14.45L104.21 14.45L105.55 14.45L105.55 17.26Q104.98 17.45 104.06 17.57Q103.15 17.69 102.48 17.69L102.48 17.69Q100.37 17.69 99.23 16.92Q98.09 16.15 98.09 14.30L98.09 14.30L98.09 7.97L96.31 7.97L96.31 4.73L98.28 4.73L99.31 0.89L102.86 0.89L102.86 4.73Z" transform="translate(28.706, 9.3)"></path></svg>