<?xml version="1.0" standalone="no"?>
<svg xmlns="http://www.w3.org/2000/svg" viewBox="0 0 665.82 190.91"><circle cx="95.45" cy="95.45" r="95.45" fill="#cb6828"/><polygon points="175.25 95.45 105.3 55.06 105.3 89.76 45.2 55.06 45.2 135.84 105.3 101.15 105.3 135.84 175.25 95.45" fill="#fff"/><path d="M112.44,151.47a5,5,0,0,1-5-5v-26L54.84,150.8a5,5,0,0,1-7.5-4.33V65.69a5,5,0,0,1,7.5-4.33l52.6,30.37v-26a5,5,0,0,1,7.5-4.33l70,40.39a5,5,0,0,1,0,8.66l-70,40.39A5,5,0,0,1,112.44,151.47Zm0-44.7a5,5,0,0,1,5,5v26l55-31.73-55-31.73v26a5,5,0,0,1-7.5,4.33L57.34,74.35v63.46l52.6-30.37A5,5,0,0,1,112.44,106.77Z" transform="translate(-7.14 -10.62)" fill="#fff"/><text transform="translate(203.24 125.39)" font-size="83.88" fill="#231f20" font-family="HelveticaNeue-Bold, Helvetica Neue" font-weight="700" letter-spacing="-0.04em">Sales <tspan x="218.08" y="0" fill="#cb6828" letter-spacing="-0.05em">Sensei</tspan></text></svg>